<svg width="25" height="25" viewBox="0 0 25 25" fill="none" xmlns="http://www.w3.org/2000/svg">
<path d="M16.8301 21.1699V19.1699C16.8301 18.1091 16.4087 17.0916 15.6585 16.3415C14.9084 15.5914 13.8909 15.1699 12.8301 15.1699H6.83008C5.76921 15.1699 4.7518 15.5914 4.00165 16.3415C3.25151 17.0916 2.83008 18.1091 2.83008 19.1699V21.1699" stroke="#F97316" stroke-width="2" stroke-linecap="round" stroke-linejoin="round"/>
<path d="M9.83008 11.1699C12.0392 11.1699 13.8301 9.37906 13.8301 7.16992C13.8301 4.96078 12.0392 3.16992 9.83008 3.16992C7.62094 3.16992 5.83008 4.96078 5.83008 7.16992C5.83008 9.37906 7.62094 11.1699 9.83008 11.1699Z" stroke="#F97316" stroke-width="2" stroke-linecap="round" stroke-linejoin="round"/>
<path d="M22.8301 21.1698V19.1698C22.8294 18.2835 22.5344 17.4226 21.9914 16.7221C21.4485 16.0217 20.6882 15.5214 19.8301 15.2998" stroke="#F97316" stroke-width="2" stroke-linecap="round" stroke-linejoin="round"/>
<path d="M16.8301 3.2998C17.6905 3.52011 18.4531 4.02051 18.9977 4.72212C19.5423 5.42372 19.8379 6.28663 19.8379 7.1748C19.8379 8.06297 19.5423 8.92588 18.9977 9.62749C18.4531 10.3291 17.6905 10.8295 16.8301 11.0498" stroke="#F97316" stroke-width="2" stroke-linecap="round" stroke-linejoin="round"/>
</svg>
